<svg xmlns="http://www.w3.org/2000/svg" width="1462pt" height="320" viewBox="0 0 1462 240"><defs><clipPath id="a"><path d="M1339 0h122.44v240H1339zm0 0"/></clipPath></defs><path d="M365.102 14.398l-43.204 160.204c-2.597 9.597-6.597 18.45-12 26.546-5.398 8.102-11.847 15-19.347 20.704-7.5 5.7-15.855 10.152-25.05 13.347-9.2 3.202-18.8 4.8-28.8 4.8H0L60.3 13.5c.997-3.996 3.153-7.246 6.45-9.75C70.05 1.254 73.8 0 78 0h32.102c3.796 0 6.847 1.5 9.148 4.5 2.297 3 2.95 6.3 1.95 9.898l-44.7 166.8h60.898l45-167.698c1-3.996 3.153-7.246 6.454-9.75 3.296-2.496 6.945-3.75 10.95-3.75h32.397c3.796 0 6.796 1.5 9 4.5 2.198 3 2.8 6.3 1.8 9.898l-44.7 166.8H234.9c7.204 0 13.653-2.143 19.352-6.448 5.7-4.297 9.45-9.945 11.25-16.95l38.7-144.3c1-3.996 3.152-7.246 6.448-9.75 3.3-2.496 7.05-3.75 11.25-3.75H354c3.797 0 6.852 1.5 9.148 4.5 2.297 3 2.954 6.3 1.954 9.898M414.598 116.25c-2.403 1.902-4.102 4.352-5.102 7.352l-13.5 51c-.8 2.8-.3 5.398 1.5 7.796 1.805 2.403 4.2 3.602 7.2 3.602h124.202l-9.597 35.7c-1.605 5.402-4.605 9.8-9 13.198-4.405 3.407-9.405 5.102-15 5.102H382.196c-8.203 0-15.703-1.75-22.5-5.25-6.8-3.496-12.45-8.2-16.95-14.102-4.5-5.894-7.6-12.597-9.3-20.097-1.69-7.5-1.445-15.152.75-22.948l18.3-68.102c1.997-7.395 5.103-14.2 9.306-20.398 4.196-6.2 9.145-11.5 14.848-15.903 5.7-4.395 12.098-7.845 19.2-10.348 7.097-2.5 14.45-3.75 22.05-3.75h80.098c8.2 0 15.7 1.796 22.5 5.398 6.8 3.602 12.45 8.3 16.95 14.102 4.5 5.8 7.546 12.5 9.152 20.097 1.597 7.605 1.394 15.3-.602 23.1l-5.398 20.4c-2.403 9-7.25 16.253-14.547 21.75-7.308 5.503-15.558 8.25-24.75 8.25h-90.605l6-22.2c1.403-5.398 4.3-9.797 8.703-13.2 4.4-3.398 9.497-5.1 15.297-5.1H477.3c3.395 0 5.595-1.696 6.598-5.098l1.2-4.5c.597-2.2.2-4.204-1.2-6-1.402-1.8-3.203-2.704-5.402-2.704h-55.8c-3 0-5.7.954-8.098 2.852M619.492 0c4.203 0 8 .898 11.403 2.7 3.398 1.8 6.2 4.155 8.402 7.05 2.195 2.902 3.75 6.254 4.648 10.05.9 3.802.75 7.704-.453 11.7l-39.898 149.7h50.703c7.195 0 13.598-2.196 19.195-6.598 5.602-4.4 9.403-10.098 11.403-17.102 1.394-4.996 1.546-9.898.45-14.7-1.103-4.8-3.103-9.046-6-12.75-2.904-3.698-6.5-6.698-10.798-9-4.305-2.296-9.055-3.448-14.25-3.448h-2.102c-4.6 0-8.203-1.75-10.8-5.25-2.602-3.497-3.403-7.45-2.403-11.852l11.403-41.7h6.597c14.602 0 27.95 3.15 40.055 9.45 12.098 6.3 22.144 14.652 30.148 25.05 7.996 10.4 13.5 22.305 16.5 35.7 3 13.402 2.594 27.105-1.203 41.102l-1.195 4.5c-2.606 9.597-6.652 18.45-12.152 26.546-5.504 8.102-12 15-19.5 20.704-7.5 5.7-15.856 10.152-25.05 13.347-9.2 3.202-18.802 4.8-28.798 4.8h-96.602c-4.203 0-7.953-.898-11.25-2.7-3.3-1.8-6.1-4.148-8.398-7.05-2.305-2.895-3.856-6.246-4.652-10.05-.797-3.798-.7-7.696.3-11.7L590.992 0h28.5M739.19 225.898l44.404-166.796H973.19c14.6 0 27.95 3.148 40.048 9.45 12.102 6.3 22.153 14.65 30.153 25.05 8 10.402 13.5 22.3 16.5 35.7 3 13.4 2.598 27.1-1.2 41.096l-15.3 56.403c-1 4.005-3.152 7.2-6.45 9.598-3.3 2.403-6.952 3.602-10.952 3.602h-32.394c-3.8 0-6.8-1.45-9-4.352-2.203-2.894-2.805-6.148-1.8-9.75l17.995-68.097c1.4-4.995 1.55-9.902.448-14.698-1.097-4.8-3.047-9.047-5.843-12.75-2.805-3.7-6.407-6.7-10.8-9-4.404-2.297-9.204-3.454-14.404-3.454h-19.5L921.595 226.8c-1.004 4.005-3.153 7.2-6.45 9.598-3.3 2.403-7.05 3.602-11.25 3.602h-32.1c-3.802 0-6.853-1.45-9.15-4.352-2.304-2.894-2.953-6.148-1.953-9.75l29.103-108h-60.898L799.793 226.8c-1.004 4.005-3.148 7.2-6.45 9.598-3.3 2.403-7.05 3.602-11.25 3.602h-32.1c-3.598 0-6.556-1.45-8.848-4.352-2.297-2.894-2.954-6.148-1.954-9.75M1220.988 121.8l.903-3.3c.4-1.598.15-2.95-.75-4.05-.902-1.095-2.152-1.65-3.75-1.65h-97.5c-4.2 0-8-.902-11.402-2.698-3.41-1.8-6.2-4.153-8.398-7.05-2.21-2.9-3.71-6.25-4.5-10.052-.8-3.797-.71-7.695.3-11.7l6-22.8h132c8.2 0 15.7 1.8 22.5 5.398 6.79 3.602 12.45 8.3 16.95 14.102 4.5 5.805 7.6 12.45 9.3 19.95 1.688 7.5 1.54 15.253-.45 23.25l-23.702 88.198c-2.398 9-7.25 16.305-14.547 21.903-7.31 5.602-15.65 8.4-25.05 8.4l-97.5-.302c-8.6 0-16.5-1.843-23.7-5.546-7.202-3.7-13.1-8.598-17.702-14.704-4.61-6.097-7.797-13.093-9.597-21-1.8-7.894-1.6-15.945.598-24.148l1.203-4.5c1.388-5.598 3.75-10.8 7.048-15.602 3.3-4.796 7.153-8.894 11.55-12.296 4.392-3.403 9.302-6.047 14.7-7.954 5.403-1.894 11.102-2.847 17.102-2.847h81.898l-6 22.5c-1.61 5.4-4.61 9.802-9 13.2-4.398 3.402-9.41 5.102-15 5.102h-36.597c-3.41 0-5.6 1.7-6.6 5.097-.6 2.202-.2 4.155 1.198 5.85 1.39 1.704 3.192 2.552 5.403 2.552h59.098c2.203 0 4.09-.602 5.703-1.8 1.6-1.2 2.6-2.798 3-4.802l.6-2.398 14.698-54.3M1320.29 30.898l4.5-17.398c1-3.996 3.15-7.246 6.448-9.75 3.3-2.496 7.05-3.75 11.25-3.75h32.403c3.598 0 6.55 1.5 8.848 4.5 2.3 3 2.953 6.2 1.953 9.602l-4.8 17.7c-1.01 4.003-3.152 7.25-6.45 9.75-3.3 2.503-6.952 3.75-10.952 3.75h-32.398c-3.8 0-6.8-1.5-9-4.5-2.21-3-2.8-6.302-1.8-9.904zM1264.487 240l38.403-144.3c1.4-5.4 3.65-10.348 6.75-14.848 3.098-4.5 6.75-8.403 10.95-11.704 4.2-3.296 8.89-5.847 14.1-7.648 5.2-1.8 10.6-2.7 16.2-2.7h22.8l-38.702 144.302c-1.398 5.398-3.648 10.347-6.75 14.847-3.11 4.5-6.75 8.402-10.95 11.698-4.198 3.3-8.897 5.852-14.097 7.653-5.21 1.802-10.612 2.7-16.202 2.7h-22.5" fill="#ff6c2c"/><g clip-path="url(#a)"><path d="M1339.79 240l60.3-226.5c.988-3.996 3.148-7.246 6.45-9.75 3.3-2.496 7.05-3.75 11.25-3.75h32.1c3.79 0 6.84 1.453 9.15 4.352 2.288 2.902 2.94 6.148 1.948 9.75l-45 167.097c-2.207 8.804-5.758 16.8-10.648 24-4.91 7.198-10.71 13.35-17.4 18.448-6.71 5.102-14.15 9.106-22.35 12-8.21 2.903-16.8 4.352-25.8 4.352" fill="#ff6c2c"/></g></svg>
